<?xml version="1.0" standalone="no"?>
<!DOCTYPE svg PUBLIC "-//W3C//DTD SVG 20010904//EN"
 "http://www.w3.org/TR/2001/REC-SVG-20010904/DTD/svg10.dtd">
<svg version="1.0" xmlns="http://www.w3.org/2000/svg"
 width="117.000000pt" height="118.000000pt" viewBox="0 0 117.000000 118.000000"
 preserveAspectRatio="xMidYMid meet">

<g transform="translate(0.000000,118.000000) scale(0.100000,-0.100000)"
fill="#000000" stroke="none">
<path d="M7 1174 c-23 -24 15 -259 55 -341 39 -80 120 -169 202 -223 76 -49
205 -97 288 -106 l56 -6 46 -72 c73 -116 219 -250 359 -331 26 -15 47 -31 47
-36 0 -5 -20 -9 -44 -9 -41 0 -74 -19 -59 -33 16 -16 202 0 209 18 8 19 -89
174 -108 175 -24 0 -23 -16 8 -67 l26 -44 -39 20 c-58 29 -200 137 -260 196
-28 29 -70 81 -93 116 l-41 63 78 13 c152 26 266 108 298 216 18 60 18 79 4
130 -23 85 -111 146 -210 147 -111 0 -201 -72 -236 -190 -19 -62 -21 -200 -4
-242 13 -35 4 -36 -103 -8 -169 43 -310 147 -379 277 -44 85 -56 129 -65 245
-6 83 -17 110 -35 92z m898 -228 c146 -61 130 -258 -28 -351 -45 -26 -151 -55
-204 -55 -26 0 -33 5 -42 31 -16 47 -14 189 4 240 43 121 161 180 270 135z"/>
</g>
</svg>
